<?xml version="1.0" encoding="UTF-8"?> <svg xmlns="http://www.w3.org/2000/svg" width="119" height="24" viewBox="0 0 119 24" fill="none"><path d="M23.0111 17.128C22.2537 17.128 21.5391 17.016 20.8671 16.792C20.2057 16.5573 19.6511 16.1893 19.2031 15.688C18.7551 15.176 18.4617 14.5093 18.3231 13.688H20.3551C20.4831 14.104 20.6857 14.4293 20.9631 14.664C21.2511 14.8987 21.5871 15.064 21.9711 15.16C22.3551 15.2453 22.7444 15.288 23.1391 15.288C23.4911 15.288 23.8217 15.2453 24.1311 15.16C24.4511 15.064 24.7124 14.9093 24.9151 14.696C25.1284 14.4827 25.2351 14.2 25.2351 13.848C25.2351 13.5813 25.1764 13.368 25.0591 13.208C24.9524 13.0373 24.7977 12.8987 24.5951 12.792C24.4031 12.6747 24.1684 12.584 23.8911 12.52C23.6244 12.4347 23.3364 12.36 23.0271 12.296C22.7177 12.232 22.4137 12.1627 22.1151 12.088C21.8164 12.0133 21.5337 11.9173 21.2671 11.8C20.9257 11.6827 20.5951 11.5493 20.2751 11.4C19.9657 11.24 19.6937 11.048 19.4591 10.824C19.2351 10.6 19.0537 10.3227 18.9151 9.992C18.7764 9.66133 18.7071 9.26667 18.7071 8.808C18.7071 8.28533 18.7924 7.83733 18.9631 7.464C19.1444 7.08 19.3791 6.76533 19.6671 6.52C19.9657 6.27467 20.2964 6.08267 20.6591 5.944C21.0324 5.80533 21.4164 5.704 21.8111 5.64C22.2164 5.576 22.6004 5.544 22.9631 5.544C23.6671 5.544 24.3071 5.66133 24.8831 5.896C25.4697 6.13067 25.9497 6.49333 26.3231 6.984C26.6964 7.47467 26.9097 8.104 26.9631 8.872H25.0271C24.9844 8.50933 24.8564 8.22133 24.6431 8.008C24.4297 7.784 24.1631 7.624 23.8431 7.528C23.5231 7.42133 23.1764 7.368 22.8031 7.368C22.5471 7.368 22.2911 7.38933 22.0351 7.432C21.7897 7.47467 21.5657 7.54933 21.3631 7.656C21.1711 7.76267 21.0111 7.90667 20.8831 8.088C20.7657 8.25867 20.7071 8.47733 20.7071 8.744C20.7071 8.97867 20.7657 9.18667 20.8831 9.368C21.0004 9.53867 21.1604 9.68267 21.3631 9.8C21.5764 9.91733 21.8271 10.024 22.1151 10.12C22.4884 10.2693 22.8937 10.3813 23.3311 10.456C23.7791 10.5307 24.2004 10.632 24.5951 10.76C24.9791 10.8667 25.3311 11 25.6511 11.16C25.9817 11.3093 26.2644 11.496 26.4991 11.72C26.7337 11.9333 26.9151 12.2 27.0431 12.52C27.1817 12.8293 27.2511 13.2027 27.2511 13.64C27.2511 14.28 27.1337 14.824 26.8991 15.272C26.6751 15.7093 26.3604 16.0667 25.9551 16.344C25.5604 16.6213 25.1071 16.824 24.5951 16.952C24.0937 17.0693 23.5657 17.128 23.0111 17.128ZM32.8547 17.112C31.9907 17.112 31.244 16.936 30.6147 16.584C29.996 16.232 29.516 15.7307 29.1747 15.08C28.844 14.4293 28.6787 13.6667 28.6787 12.792C28.6787 11.9067 28.8494 11.144 29.1907 10.504C29.532 9.85333 30.012 9.34667 30.6307 8.984C31.2494 8.62133 31.9907 8.44 32.8547 8.44C33.708 8.44 34.444 8.62133 35.0627 8.984C35.6814 9.34667 36.156 9.85867 36.4867 10.52C36.8174 11.1707 36.9827 11.9387 36.9827 12.824C36.9827 13.688 36.8174 14.4453 36.4867 15.096C36.1667 15.736 35.6974 16.232 35.0787 16.584C34.46 16.936 33.7187 17.112 32.8547 17.112ZM32.8387 15.336C33.372 15.336 33.7987 15.2187 34.1187 14.984C34.4494 14.7493 34.6894 14.44 34.8387 14.056C34.988 13.672 35.0627 13.256 35.0627 12.808C35.0627 12.36 34.988 11.9387 34.8387 11.544C34.6894 11.1493 34.4494 10.8347 34.1187 10.6C33.7987 10.3547 33.372 10.232 32.8387 10.232C32.3054 10.232 31.8734 10.3547 31.5427 10.6C31.212 10.8347 30.972 11.1493 30.8227 11.544C30.6734 11.928 30.5987 12.3493 30.5987 12.808C30.5987 13.256 30.6734 13.6773 30.8227 14.072C30.9827 14.456 31.2227 14.7653 31.5427 15C31.8734 15.224 32.3054 15.336 32.8387 15.336ZM39.1413 17V10.296H37.8293V8.568H39.1413V7.768C39.1413 7.128 39.2373 6.60533 39.4293 6.2C39.6213 5.784 39.9253 5.48 40.3413 5.288C40.768 5.096 41.312 5 41.9733 5H43.2213V6.728H42.1973C41.9093 6.728 41.6853 6.776 41.5253 6.872C41.3653 6.968 41.248 7.112 41.1733 7.304C41.1093 7.48533 41.0773 7.70933 41.0773 7.976V8.568H43.2213V10.296H41.0773V17H39.1413ZM47.7962 17.096C46.8682 17.096 46.1909 16.84 45.7642 16.328C45.3375 15.816 45.1242 15.1067 45.1242 14.2V10.296H43.8282V8.568H45.1242V6.2H47.0762V8.568H49.6362V10.296H47.0762V13.832C47.0762 14.1093 47.1082 14.36 47.1722 14.584C47.2362 14.808 47.3535 14.984 47.5242 15.112C47.6949 15.24 47.9295 15.3093 48.2282 15.32C48.4842 15.32 48.7029 15.2773 48.8842 15.192C49.0655 15.1067 49.2149 15.0107 49.3322 14.904L49.9882 16.392C49.7855 16.5627 49.5562 16.7013 49.3002 16.808C49.0549 16.9147 48.8042 16.9893 48.5482 17.032C48.2922 17.0747 48.0415 17.096 47.7962 17.096ZM58.7307 17.112C58.3254 17.112 57.92 17.0693 57.5147 16.984C57.12 16.8987 56.7467 16.76 56.3947 16.568C56.0427 16.3653 55.7494 16.0933 55.5147 15.752C55.28 15.4107 55.1254 14.984 55.0507 14.472H57.0187C57.104 14.7067 57.2374 14.8987 57.4187 15.048C57.6107 15.1867 57.8294 15.2933 58.0747 15.368C58.3307 15.432 58.5814 15.464 58.8267 15.464C58.976 15.464 59.136 15.4533 59.3067 15.432C59.488 15.4107 59.6534 15.368 59.8027 15.304C59.9627 15.24 60.0907 15.1493 60.1867 15.032C60.2827 14.904 60.3307 14.7387 60.3307 14.536C60.3307 14.344 60.2774 14.1947 60.1707 14.088C60.064 13.9707 59.92 13.88 59.7387 13.816C59.5574 13.7413 59.3387 13.6827 59.0827 13.64C58.624 13.544 58.1334 13.4427 57.6107 13.336C57.088 13.2187 56.6347 13.0373 56.2507 12.792C56.0907 12.696 55.952 12.584 55.8347 12.456C55.7174 12.328 55.616 12.1893 55.5307 12.04C55.456 11.88 55.3974 11.7093 55.3547 11.528C55.3227 11.3467 55.3067 11.1493 55.3067 10.936C55.3067 10.488 55.3974 10.1093 55.5787 9.8C55.7707 9.48 56.0214 9.224 56.3307 9.032C56.6507 8.82933 57.0134 8.68 57.4187 8.584C57.824 8.488 58.24 8.44 58.6667 8.44C59.2427 8.44 59.7654 8.53067 60.2347 8.712C60.704 8.89333 61.0934 9.17067 61.4027 9.544C61.7227 9.91733 61.9147 10.392 61.9787 10.968H60.1227C60.0694 10.7013 59.904 10.488 59.6267 10.328C59.36 10.168 59.0187 10.088 58.6027 10.088C58.4534 10.088 58.2987 10.104 58.1387 10.136C57.9787 10.1573 57.824 10.2 57.6747 10.264C57.536 10.3173 57.4187 10.4027 57.3227 10.52C57.2374 10.6373 57.1947 10.7813 57.1947 10.952C57.1947 11.112 57.232 11.2507 57.3067 11.368C57.392 11.4853 57.5147 11.5867 57.6747 11.672C57.8454 11.7467 58.0427 11.8107 58.2667 11.864C58.6294 11.9387 59.008 12.0133 59.4027 12.088C59.7974 12.1627 60.1387 12.2373 60.4267 12.312C60.768 12.408 61.0774 12.5467 61.3547 12.728C61.632 12.8987 61.8454 13.128 61.9947 13.416C62.1547 13.6933 62.2347 14.0507 62.2347 14.488C62.2347 15 62.128 15.4267 61.9147 15.768C61.712 16.1093 61.44 16.376 61.0987 16.568C60.7574 16.76 60.3787 16.8987 59.9627 16.984C59.5467 17.0693 59.136 17.112 58.7307 17.112ZM63.6706 17V5.688H65.6226V11.944H66.8386L69.0626 8.568H71.2546L68.5186 12.584L71.4786 17H69.2066L66.9506 13.656H65.6226V17H63.6706ZM72.4049 17V8.568H74.3569V17H72.4049ZM73.3809 7.592C73.0076 7.592 72.7089 7.48 72.4849 7.256C72.2609 7.032 72.1489 6.73867 72.1489 6.376C72.1489 6.024 72.2663 5.736 72.5009 5.512C72.7356 5.27733 73.0289 5.16 73.3809 5.16C73.7223 5.16 74.0156 5.272 74.2609 5.496C74.5063 5.72 74.6289 6.01333 74.6289 6.376C74.6289 6.73867 74.5116 7.032 74.2769 7.256C74.0423 7.48 73.7436 7.592 73.3809 7.592ZM76.2487 17V5.688H78.2007V17H76.2487ZM80.0924 17V5.688H82.0444V17H80.0924ZM87.1682 17.112C86.7629 17.112 86.3575 17.0693 85.9522 16.984C85.5575 16.8987 85.1842 16.76 84.8322 16.568C84.4802 16.3653 84.1869 16.0933 83.9522 15.752C83.7175 15.4107 83.5629 14.984 83.4882 14.472H85.4562C85.5415 14.7067 85.6749 14.8987 85.8562 15.048C86.0482 15.1867 86.2669 15.2933 86.5122 15.368C86.7682 15.432 87.0189 15.464 87.2642 15.464C87.4135 15.464 87.5735 15.4533 87.7442 15.432C87.9255 15.4107 88.0909 15.368 88.2402 15.304C88.4002 15.24 88.5282 15.1493 88.6242 15.032C88.7202 14.904 88.7682 14.7387 88.7682 14.536C88.7682 14.344 88.7149 14.1947 88.6082 14.088C88.5015 13.9707 88.3575 13.88 88.1762 13.816C87.9949 13.7413 87.7762 13.6827 87.5202 13.64C87.0615 13.544 86.5709 13.4427 86.0482 13.336C85.5255 13.2187 85.0722 13.0373 84.6882 12.792C84.5282 12.696 84.3895 12.584 84.2722 12.456C84.1549 12.328 84.0535 12.1893 83.9682 12.04C83.8935 11.88 83.8349 11.7093 83.7922 11.528C83.7602 11.3467 83.7442 11.1493 83.7442 10.936C83.7442 10.488 83.8349 10.1093 84.0162 9.8C84.2082 9.48 84.4589 9.224 84.7682 9.032C85.0882 8.82933 85.4509 8.68 85.8562 8.584C86.2615 8.488 86.6775 8.44 87.1042 8.44C87.6802 8.44 88.2029 8.53067 88.6722 8.712C89.1415 8.89333 89.5309 9.17067 89.8402 9.544C90.1602 9.91733 90.3522 10.392 90.4162 10.968H88.5602C88.5069 10.7013 88.3415 10.488 88.0642 10.328C87.7975 10.168 87.4562 10.088 87.0402 10.088C86.8909 10.088 86.7362 10.104 86.5762 10.136C86.4162 10.1573 86.2615 10.2 86.1122 10.264C85.9735 10.3173 85.8562 10.4027 85.7602 10.52C85.6749 10.6373 85.6322 10.7813 85.6322 10.952C85.6322 11.112 85.6695 11.2507 85.7442 11.368C85.8295 11.4853 85.9522 11.5867 86.1122 11.672C86.2829 11.7467 86.4802 11.8107 86.7042 11.864C87.0669 11.9387 87.4455 12.0133 87.8402 12.088C88.2349 12.1627 88.5762 12.2373 88.8642 12.312C89.2055 12.408 89.5149 12.5467 89.7922 12.728C90.0695 12.8987 90.2829 13.128 90.4322 13.416C90.5922 13.6933 90.6722 14.0507 90.6722 14.488C90.6722 15 90.5655 15.4267 90.3522 15.768C90.1495 16.1093 89.8775 16.376 89.5362 16.568C89.1949 16.76 88.8162 16.8987 88.4002 16.984C87.9842 17.0693 87.5735 17.112 87.1682 17.112ZM96.5612 17V5.688H98.5132V17H96.5612ZM103.093 17.112C102.698 17.112 102.325 17.0587 101.973 16.952C101.621 16.8453 101.306 16.6907 101.029 16.488C100.752 16.2747 100.528 16.0133 100.357 15.704C100.197 15.384 100.117 15.0107 100.117 14.584C100.117 14.04 100.224 13.5973 100.437 13.256C100.65 12.904 100.938 12.6373 101.301 12.456C101.674 12.2747 102.096 12.152 102.565 12.088C103.034 12.0133 103.525 11.976 104.037 11.976H105.685C105.685 11.6027 105.626 11.2827 105.509 11.016C105.392 10.7387 105.205 10.52 104.949 10.36C104.704 10.2 104.384 10.12 103.989 10.12C103.733 10.12 103.493 10.152 103.269 10.216C103.056 10.2693 102.869 10.36 102.709 10.488C102.56 10.6053 102.453 10.76 102.389 10.952H100.389C100.464 10.5147 100.613 10.1413 100.837 9.832C101.072 9.512 101.354 9.25067 101.685 9.048C102.026 8.84533 102.4 8.696 102.805 8.6C103.21 8.49333 103.621 8.44 104.037 8.44C105.264 8.44 106.154 8.792 106.709 9.496C107.274 10.2 107.557 11.1867 107.557 12.456V17H105.829L105.781 15.912C105.536 16.2747 105.242 16.5413 104.901 16.712C104.56 16.8827 104.229 16.9893 103.909 17.032C103.589 17.0853 103.317 17.112 103.093 17.112ZM103.477 15.528C103.904 15.528 104.282 15.448 104.613 15.288C104.944 15.128 105.205 14.904 105.397 14.616C105.6 14.328 105.701 13.9973 105.701 13.624V13.352H104.165C103.909 13.352 103.653 13.3627 103.397 13.384C103.152 13.3947 102.928 13.4373 102.725 13.512C102.522 13.576 102.357 13.6773 102.229 13.816C102.112 13.9547 102.053 14.152 102.053 14.408C102.053 14.664 102.117 14.872 102.245 15.032C102.384 15.192 102.56 15.3147 102.773 15.4C102.997 15.4853 103.232 15.528 103.477 15.528ZM113.949 17.112C113.639 17.112 113.33 17.08 113.021 17.016C112.711 16.952 112.413 16.84 112.125 16.68C111.847 16.52 111.591 16.3067 111.357 16.04L111.309 17H109.421V5.688H111.373V9.624C111.682 9.22933 112.077 8.936 112.557 8.744C113.047 8.54133 113.554 8.44 114.077 8.44C114.909 8.44 115.591 8.632 116.125 9.016C116.669 9.38933 117.069 9.90133 117.325 10.552C117.591 11.2027 117.725 11.9387 117.725 12.76C117.725 13.5813 117.586 14.3227 117.309 14.984C117.042 15.6347 116.631 16.152 116.077 16.536C115.522 16.92 114.813 17.112 113.949 17.112ZM113.629 15.384C114.173 15.384 114.599 15.2613 114.909 15.016C115.229 14.76 115.458 14.4293 115.597 14.024C115.735 13.6187 115.805 13.192 115.805 12.744C115.805 12.2853 115.73 11.864 115.581 11.48C115.442 11.096 115.213 10.7867 114.893 10.552C114.573 10.3173 114.146 10.2 113.613 10.2C113.122 10.2 112.706 10.328 112.365 10.584C112.034 10.8293 111.783 11.1547 111.613 11.56C111.442 11.9547 111.357 12.3653 111.357 12.792C111.357 13.24 111.431 13.6613 111.581 14.056C111.741 14.4507 111.986 14.7707 112.317 15.016C112.658 15.2613 113.095 15.384 113.629 15.384Z" fill="#080D15"></path><path d="M4.30751 5.23077V10.4234C4.30739 10.9242 4.15451 11.413 3.86927 11.8246L2.89553 13.2308H10.6429L9.66919 11.8246C9.38416 11.4129 9.2315 10.9241 9.23156 10.4234V5.23077H9.84707C10.0103 5.23077 10.1669 5.16593 10.2823 5.05053C10.3977 4.93512 10.4626 4.77859 10.4626 4.61538C10.4626 4.45217 10.3977 4.29565 10.2823 4.18024C10.1669 4.06483 10.0103 4 9.84707 4H3.692C3.52876 4 3.3722 4.06483 3.25677 4.18024C3.14134 4.29565 3.07649 4.45217 3.07649 4.61538C3.07649 4.77859 3.14134 4.93512 3.25677 5.05053C3.3722 5.16593 3.52876 5.23077 3.692 5.23077H4.30751ZM11.4948 14.4615H2.04367L0.354723 16.9003C-0.552534 18.2105 0.385498 20 1.97966 20H11.5594C13.153 20 14.091 18.2105 13.1837 16.9003L11.4948 14.4615Z" fill="#4BC6CC"></path><path d="M4.30751 5.23077V10.4234C4.30739 10.9242 4.15451 11.413 3.86927 11.8246L2.89553 13.2308H10.6429L9.66919 11.8246C9.38416 11.4129 9.2315 10.9241 9.23156 10.4234V5.23077H9.84707C10.0103 5.23077 10.1669 5.16593 10.2823 5.05053C10.3977 4.93512 10.4626 4.77859 10.4626 4.61538C10.4626 4.45217 10.3977 4.29565 10.2823 4.18024C10.1669 4.06483 10.0103 4 9.84707 4H3.692C3.52876 4 3.3722 4.06483 3.25677 4.18024C3.14134 4.29565 3.07649 4.45217 3.07649 4.61538C3.07649 4.77859 3.14134 4.93512 3.25677 5.05053C3.3722 5.16593 3.52876 5.23077 3.692 5.23077H4.30751ZM11.4948 14.4615H2.04367L0.354723 16.9003C-0.552534 18.2105 0.385498 20 1.97966 20H11.5594C13.153 20 14.091 18.2105 13.1837 16.9003L11.4948 14.4615Z" fill="#4BC6CC"></path><path d="M4.30751 5.23077V10.4234C4.30739 10.9242 4.15451 11.413 3.86927 11.8246L2.89553 13.2308H10.6429L9.66919 11.8246C9.38416 11.4129 9.2315 10.9241 9.23156 10.4234V5.23077H9.84707C10.0103 5.23077 10.1669 5.16593 10.2823 5.05053C10.3977 4.93512 10.4626 4.77859 10.4626 4.61538C10.4626 4.45217 10.3977 4.29565 10.2823 4.18024C10.1669 4.06483 10.0103 4 9.84707 4H3.692C3.52876 4 3.3722 4.06483 3.25677 4.18024C3.14134 4.29565 3.07649 4.45217 3.07649 4.61538C3.07649 4.77859 3.14134 4.93512 3.25677 5.05053C3.3722 5.16593 3.52876 5.23077 3.692 5.23077H4.30751Z" fill="#4BC6CC"></path><path d="M4.30751 5.23077V10.4234C4.30739 10.9242 4.15451 11.413 3.86927 11.8246L2.89553 13.2308H10.6429L9.66919 11.8246C9.38416 11.4129 9.2315 10.9241 9.23156 10.4234V5.23077H9.84707C10.0103 5.23077 10.1669 5.16593 10.2823 5.05053C10.3977 4.93512 10.4626 4.77859 10.4626 4.61538C10.4626 4.45217 10.3977 4.29565 10.2823 4.18024C10.1669 4.06483 10.0103 4 9.84707 4H3.692C3.52876 4 3.3722 4.06483 3.25677 4.18024C3.14134 4.29565 3.07649 4.45217 3.07649 4.61538C3.07649 4.77859 3.14134 4.93512 3.25677 5.05053C3.3722 5.16593 3.52876 5.23077 3.692 5.23077H4.30751Z" fill="#080D15"></path></svg> 